<svg xmlns="http://www.w3.org/2000/svg" width="22" height="22" viewBox="0 0 22 22">
  <defs>
    <style>
      .cls-1 {
        fill: #fff;
        fill-rule: evenodd;
      }
    </style>
  </defs>
  <rect id="Rounded_Rectangle_1_copy" data-name="Rounded Rectangle 1 copy" width="22" height="22" rx="11" ry="11"/>
  <path id="Shaoe" class="cls-1" d="M151.721,99h-7.087a1.451,1.451,0,0,0-1.277,2.08c0.487,1.346,1.125,3.3,1.673,4.834,0.517,1.1,2.038,1.254,2.889-.275C148.315,104.94,151.721,99,151.721,99Zm5-.011H154.5a1.641,1.641,0,0,0-1.7.918c-0.456.826-1.74,3.005-2.683,4.687-1,1.622,1.4,3.274,2.707,1.193C153.577,104.446,156.716,98.994,156.716,98.994Z" transform="translate(-139 -91)"/>
</svg>
