<svg width="18" height="19" viewBox="0 0 18 19" fill="none" xmlns="http://www.w3.org/2000/svg">
<path d="M1.99603 15.1867C1.63153 15.5512 1.63153 16.1421 1.99603 16.5066C2.36051 16.8711 2.95147 16.8711 3.31595 16.5066L1.99603 15.1867ZM16.0093 3.81327C16.3737 3.44878 16.3737 2.85783 16.0093 2.49334C15.6448 2.12885 15.0539 2.12885 14.6893 2.49334L16.0093 3.81327ZM3.31595 16.5066L8.91597 10.9066L7.59601 9.58666L1.99603 15.1867L3.31595 16.5066ZM10.4093 9.41328L16.0093 3.81327L14.6893 2.49334L9.08934 8.09333L10.4093 9.41328Z" fill="white"/>
<path d="M4.67226 2.21997H3.22931C2.42496 2.21997 2.02279 2.21997 1.85464 2.43168C1.80219 2.4977 1.76534 2.57471 1.74682 2.65697C1.68744 2.92073 1.93973 3.23393 2.44433 3.86032L12.5493 16.4043C12.6811 16.5681 12.7471 16.65 12.834 16.7016C12.8627 16.7186 12.8928 16.733 12.9241 16.7447C13.0188 16.78 13.1239 16.78 13.3342 16.78H14.7718C15.5759 16.78 15.9779 16.78 16.1461 16.5683C16.1986 16.5023 16.2354 16.4253 16.2539 16.343C16.3134 16.0794 16.0612 15.7661 15.5569 15.1398L5.4574 2.59583C5.32548 2.43197 5.25952 2.35004 5.17259 2.29844C5.14391 2.28141 5.11376 2.26697 5.08251 2.25531C4.9878 2.21997 4.88262 2.21997 4.67226 2.21997Z" fill="white"/>
</svg>
