<svg width="18" height="19" viewBox="0 0 18 19" fill="none" xmlns="http://www.w3.org/2000/svg">
<path fill-rule="evenodd" clip-rule="evenodd" d="M2.34279 5.62116C1.87818 6.27749 1.83817 6.98261 1.75816 8.39285C1.73619 8.78015 1.72266 9.15751 1.72266 9.49964C1.72266 9.84176 1.73619 10.2191 1.75816 10.6064C1.83817 12.0166 1.87818 12.7218 2.34279 13.3781C2.47534 13.5654 2.69903 13.8027 2.87813 13.9461C3.50585 14.4487 4.20782 14.5303 5.61178 14.6937C6.67645 14.8175 7.86586 14.913 9.00266 14.913C10.1395 14.913 11.3289 14.8175 12.3936 14.6937C13.7975 14.5303 14.4995 14.4487 15.1272 13.9461C15.3063 13.8027 15.5299 13.5654 15.6625 13.3781C16.1271 12.7218 16.1671 12.0166 16.2472 10.6064C16.2691 10.2191 16.2827 9.84176 16.2827 9.49964C16.2827 9.15751 16.2691 8.78015 16.2472 8.39285C16.1671 6.9826 16.1271 6.27748 15.6625 5.62116C15.5299 5.4339 15.3063 5.19657 15.1272 5.05318C14.4995 4.5506 13.7975 4.46894 12.3936 4.30562C11.3289 4.18177 10.1395 4.0863 9.00266 4.0863C7.86586 4.0863 6.67645 4.18177 5.61178 4.30562C4.20782 4.46894 3.50585 4.5506 2.87813 5.05318C2.69903 5.19657 2.47534 5.4339 2.34279 5.62116ZM11.2677 9.07426C11.1081 8.6857 10.5501 8.40667 9.43401 7.84864C8.50523 7.38426 8.0408 7.15206 7.665 7.22653C7.39995 7.27904 7.16284 7.42558 6.99735 7.63914C6.76266 7.94201 6.76266 8.46125 6.76266 9.49964C6.76266 10.538 6.76266 11.0573 6.99735 11.3601C7.16284 11.5737 7.39995 11.7202 7.665 11.7727C8.0408 11.8472 8.50523 11.615 9.43401 11.1506C10.5501 10.5926 11.1081 10.3136 11.2677 9.92501C11.3796 9.65248 11.3796 9.34679 11.2677 9.07426Z" fill="white"/>
</svg>
