<svg width="18" height="19" viewBox="0 0 18 19" fill="none" xmlns="http://www.w3.org/2000/svg">
<path fill-rule="evenodd" clip-rule="evenodd" d="M1.72266 8.60397C1.72266 5.94416 1.72266 4.61425 2.40001 3.68196C2.61877 3.38087 2.88355 3.11608 3.18464 2.89732C4.11694 2.21997 5.44684 2.21997 8.10666 2.21997H9.89866C12.5584 2.21997 13.8884 2.21997 14.8207 2.89732C15.1217 3.11608 15.3866 3.38087 15.6053 3.68196C16.2827 4.61425 16.2827 5.94416 16.2827 8.60397V10.396C16.2827 13.0557 16.2827 14.3857 15.6053 15.318C15.3866 15.6191 15.1217 15.8839 14.8207 16.1026C13.8884 16.78 12.5584 16.78 9.89866 16.78H8.10666C5.44684 16.78 4.11694 16.78 3.18464 16.1026C2.88355 15.8839 2.61877 15.6191 2.40001 15.318C1.72266 14.3857 1.72266 13.0557 1.72266 10.396V8.60397ZM5.64266 7.81997C5.95193 7.81997 6.20266 8.0707 6.20266 8.37997V12.86C6.20266 13.1692 5.95193 13.42 5.64266 13.42C5.33338 13.42 5.08266 13.1692 5.08266 12.86V8.37997C5.08266 8.0707 5.33338 7.81997 5.64266 7.81997ZM8.25599 7.81997C8.56526 7.81997 8.81599 8.0707 8.81599 8.37997V8.54879C9.35904 8.09385 10.0588 7.81997 10.8227 7.81997C11.9825 7.81997 12.9227 8.76017 12.9227 9.91997V12.86C12.9227 13.1692 12.6719 13.42 12.3627 13.42C12.0534 13.42 11.8027 13.1692 11.8027 12.86V9.91997C11.8027 9.37871 11.3639 8.93997 10.8227 8.93997C9.71438 8.93997 8.81599 9.83836 8.81599 10.9466V12.86C8.81599 13.1692 8.56526 13.42 8.25599 13.42C7.94672 13.42 7.69599 13.1692 7.69599 12.86V10.9466V8.37997C7.69599 8.0707 7.94672 7.81997 8.25599 7.81997ZM5.64266 6.88664C6.05503 6.88664 6.38932 6.55234 6.38932 6.13997C6.38932 5.7276 6.05503 5.3933 5.64266 5.3933C5.23029 5.3933 4.89599 5.7276 4.89599 6.13997C4.89599 6.55234 5.23029 6.88664 5.64266 6.88664Z" fill="white"/>
</svg>
