<svg width="18" height="19" viewBox="0 0 18 19" fill="none" xmlns="http://www.w3.org/2000/svg">
<path d="M8.84962 16.7795H9.14829C9.70822 16.7795 9.98822 16.7795 10.1845 16.6369C10.2479 16.5909 10.3036 16.5352 10.3497 16.4718C10.4923 16.2755 10.4923 15.9955 10.4923 15.4355V10.7129H11.3883C11.9482 10.7129 12.2282 10.7129 12.4245 10.5703C12.4879 10.5242 12.5436 10.4685 12.5897 10.4051C12.7323 10.2088 12.7323 9.9288 12.7323 9.36888V9.22574C12.7323 8.66582 12.7323 8.38582 12.5897 8.18952C12.5436 8.1262 12.4879 8.07042 12.4245 8.02435C12.2282 7.88176 11.9482 7.88176 11.3883 7.88176H10.4923V6.17066C10.4923 5.82276 10.4923 5.6488 10.5491 5.51158C10.6249 5.32863 10.7703 5.18327 10.9532 5.10749C11.0904 5.05066 11.2644 5.05066 11.6123 5.05066C11.9602 5.05066 12.1341 5.05066 12.2714 4.99382C12.4543 4.91803 12.5997 4.77268 12.6755 4.58972C12.7323 4.45251 12.7323 4.27856 12.7323 3.93066V3.38103C12.7323 2.99413 12.7323 2.80068 12.6623 2.65065C12.5881 2.49156 12.4603 2.36369 12.3012 2.2895C12.1512 2.21954 11.9577 2.21954 11.5708 2.21954C10.2167 2.21954 9.53962 2.21954 9.01449 2.46439C8.4577 2.72405 8.01015 3.1716 7.75046 3.72844C7.50562 4.25352 7.50562 4.93059 7.50562 6.28473V7.88176H6.60962C6.04966 7.88176 5.76968 7.88176 5.57341 8.02435C5.51002 8.07042 5.45428 8.1262 5.40822 8.18952C5.26562 8.38582 5.26562 8.66582 5.26562 9.22574V9.36888C5.26562 9.9288 5.26562 10.2088 5.40822 10.4051C5.45428 10.4685 5.51002 10.5242 5.57341 10.5703C5.76968 10.7129 6.04966 10.7129 6.60962 10.7129H7.50562V15.4355C7.50562 15.9955 7.50562 16.2755 7.64824 16.4718C7.69431 16.5352 7.75001 16.5909 7.8134 16.6369C8.0097 16.7795 8.2897 16.7795 8.84962 16.7795Z" fill="white"/>
</svg>
