<svg width="43" height="49" viewBox="0 0 43 49" fill="none" xmlns="http://www.w3.org/2000/svg">
<path d="M18.955 1.69533C20.502 0.802164 22.408 0.802165 23.955 1.69533L39.7396 10.8086C41.2866 11.7017 42.2396 13.3524 42.2396 15.1387V33.3652C42.2396 35.1515 41.2866 36.8022 39.7396 37.6953L23.955 46.8086C22.408 47.7017 20.502 47.7017 18.955 46.8086L3.17041 37.6953C1.6234 36.8022 0.67041 35.1515 0.67041 33.3652V15.1387C0.67041 13.3524 1.6234 11.7017 3.17041 10.8086L18.955 1.69533Z" fill="url(#paint0_linear_13_42)"/>
<path d="M16.1202 30.0646L27.2659 18.9189L16.1202 30.0646ZM27.2659 18.9189H18.3493H27.2659ZM27.2659 18.9189V27.8355V18.9189Z" fill="url(#paint1_linear_13_42)"/>
<path d="M16.1202 30.0646L27.2659 18.9189M27.2659 18.9189H18.3493M27.2659 18.9189V27.8355" stroke="#1F1F1F" stroke-width="1.5132" stroke-linecap="round" stroke-linejoin="round"/>
<defs>
<linearGradient id="paint0_linear_13_42" x1="-5.82959" y1="-7.5" x2="37.6704" y2="38" gradientUnits="userSpaceOnUse">
<stop stop-color="#EE7701"/>
<stop offset="1" stop-color="#FF71C6"/>
</linearGradient>
<linearGradient id="paint1_linear_13_42" x1="26.5956" y1="21.9952" x2="18.2276" y2="29.311" gradientUnits="userSpaceOnUse">
<stop stop-color="#FF71C6"/>
<stop offset="1" stop-color="#EE7701"/>
</linearGradient>
</defs>
</svg>
