<svg width="1925" height="547" viewBox="0 0 1925 547" fill="none" xmlns="http://www.w3.org/2000/svg">
<mask id="mask0_72_106" style="mask-type:luminance" maskUnits="userSpaceOnUse" x="1" y="0" width="1923" height="547">
<path d="M1923.73 2.24464L4.44238 0.174561L1.71316 544.463L1921 546.533L1923.73 2.24464Z" fill="white"/>
</mask>
<g mask="url(#mask0_72_106)">
<g style="mix-blend-mode:screen">
<path opacity="0.06" d="M3023 430.204C2918.23 340.221 2755.29 367.123 2630.86 428.373C2600.64 443.261 2571.04 459.965 2541.77 477.198C2450.58 530.869 2362.28 588.886 2258.46 604.043C2176.43 616.231 2093.13 598.797 2016.39 566.813C1974.1 549.174 1933.66 527.228 1895.4 503.359C1864.61 484.134 1834.74 463.574 1805.17 442.692C1750.93 404.382 1697.28 364.438 1638.76 331.16C1617.56 319.08 1595.85 308.036 1573.63 298.028C1541.17 283.521 1507.77 271.173 1473.64 261.067C1401.17 239.505 1326.27 226.908 1250.64 223.562C1205.29 221.501 1159.37 223.003 1113.67 225.974C1067.77 228.944 1022.56 232.856 977.516 242.277C924.465 253.167 874.372 273.333 824.933 292.832C799.718 302.702 774.347 312.688 748.344 321.397C719.406 331.272 689.876 339.346 659.926 345.574C608.429 356.041 556.192 362.512 503.692 364.929C486.817 365.734 469.996 366.067 453.23 365.929C408.264 365.709 363.742 362.763 319.02 358.374C187.779 345.306 55.6498 320.535 -72.4691 287.578" stroke="#494949" stroke-opacity="0.3" stroke-width="0.780398" stroke-miterlimit="10"/>
<path opacity="0.13" d="M3040.93 428.245C2936.63 336.521 2772.44 359.663 2647.19 421.031C2616.73 435.944 2587.04 452.932 2557.97 470.798C2467.48 526.264 2382.19 588.465 2278.32 605.94C2195.48 619.839 2110.25 601.227 2033.76 566.681C1991.59 547.599 1951.82 523.943 1914.41 498.247C1884.37 477.557 1855.42 455.582 1826.83 433.325C1774.39 392.393 1722.39 349.466 1663.13 315.451C1641.69 303.161 1619.52 292.172 1596.73 282.545C1563.57 268.686 1529.43 257.238 1494.58 248.291C1420.75 229.071 1344.8 218.931 1268.43 218.1C1222.76 217.48 1176.22 220.706 1129.89 223.469C1083.24 226.231 1037.68 227.593 991.901 236.19C937.201 246.457 886.338 269.48 836.924 291.684C811.871 302.945 786.531 314.451 760.379 324.486C731.345 335.645 701.422 345.102 670.216 351.234C617.237 361.578 563.388 366.879 509.407 367.063C492.18 367.137 475.047 366.654 458.007 365.613C412.378 362.998 367.492 357.373 321.986 351.025C188.614 332.428 51.3905 308.825 -80.6722 281.094" stroke="#494949" stroke-opacity="0.3" stroke-width="0.975498" stroke-miterlimit="10"/>
<path opacity="0.19" d="M3058.89 426.281C2955.04 332.789 2789.6 352.21 2663.52 413.67C2632.77 428.844 2602.94 445.781 2574.18 464.394C2484.42 521.759 2402.11 588.197 2298.2 607.837C2214.6 623.627 2127.37 603.67 2051.2 566.561C2009.14 546.037 1970.03 520.695 1933.58 493.186C1904.28 471.209 1876.26 447.717 1848.65 424.007C1798 380.464 1747.63 334.541 1687.63 299.787C1665.93 287.261 1643.31 276.343 1619.97 267.12C1586.11 253.626 1550.98 243.538 1515.73 235.575C1440.54 218.691 1363.51 211 1286.39 212.672C1240.4 213.506 1193.22 218.456 1146.25 221.011C1098.88 223.579 1052.99 222.314 1006.37 230.214C949.971 239.769 898.287 265.662 849.014 290.623C824.124 303.238 798.827 316.315 772.512 327.715C743.262 340.368 712.839 350.944 680.592 357.035C626.124 367.298 570.67 371.442 515.286 369.389C497.715 368.741 480.265 367.451 462.936 365.517C416.668 360.479 371.419 352.188 325.129 343.894C189.457 319.548 47.153 296.984 -88.8805 274.607" stroke="#494949" stroke-opacity="0.3" stroke-width="1.1706" stroke-miterlimit="10"/>
<path opacity="0.25" d="M3076.85 424.309C2973.46 329.048 2806.77 344.734 2679.85 406.327C2648.87 421.509 2618.98 438.772 2590.38 457.995C2501.36 517.182 2422.07 587.885 2318.07 609.716C2233.72 627.385 2144.49 606.107 2068.48 566.447C2026.53 544.429 1988.06 517.427 1952.54 488.129C1924.03 464.711 1896.84 439.804 1870.27 414.693C1821.42 368.526 1772.72 319.631 1711.95 284.164C1689.96 271.421 1666.9 260.58 1643.02 251.762C1608.47 238.779 1572.54 229.796 1536.7 222.937C1460.17 208.403 1382.12 203.161 1304.27 207.325C1257.95 209.613 1210.15 216.287 1162.55 218.635C1114.39 220.995 1068.24 217.052 1020.8 224.319C962.723 233.149 910.243 261.9 861.06 289.658C836.266 303.613 811.079 318.263 784.601 330.938C755.149 345.008 724.212 356.781 690.937 362.766C634.939 372.944 577.86 375.911 521.121 371.593C503.19 370.241 485.418 368.134 467.807 365.272C420.875 357.838 375.262 346.868 328.188 336.626C190.346 306.544 42.909 285.2 -97.0948 268.101" stroke="#494949" stroke-opacity="0.3" stroke-width="1.3657" stroke-miterlimit="10"/>
<path opacity="0.31" d="M3094.8 422.33C2991.86 325.313 2823.92 337.251 2696.16 398.925C2664.96 414.124 2635.01 431.72 2606.58 451.551C2518.22 512.614 2442 587.685 2337.94 611.656C2252.84 631.218 2161.61 608.594 2085.92 566.357C2044.1 542.934 2006.33 514.181 1971.67 483.094C1943.88 458.273 1917.69 431.925 1892.05 405.398C1845 356.62 1797.94 304.674 1736.42 268.495C1714.16 255.486 1690.66 244.695 1666.24 236.279C1630.99 223.899 1594.28 215.917 1557.82 210.189C1479.94 198.093 1400.85 195.304 1322.26 201.882C1275.62 205.727 1227.21 214.023 1178.94 216.163C1130.11 218.316 1083.58 211.784 1035.34 218.29C975.575 226.382 922.287 258.005 873.206 288.599C848.614 303.972 823.431 320.143 796.777 334.119C767.122 349.748 735.698 362.59 701.382 368.585C643.806 378.698 585.066 380.483 527.003 373.886C508.72 371.82 490.598 368.853 472.765 365.128C425.208 355.207 379.205 341.66 331.347 329.458C191.074 293.766 38.608 273.564 -105.353 261.758" stroke="#494949" stroke-opacity="0.3" stroke-width="1.5608" stroke-miterlimit="10"/>
<path opacity="0.38" d="M3112.75 420.356C3010.26 321.567 2841.08 329.758 2712.49 391.54C2681.04 406.747 2651 424.674 2622.73 445.111C2535.07 508.025 2461.96 587.453 2357.73 613.488C2271.89 634.943 2178.66 610.972 2103.24 566.171C2061.51 541.304 2024.41 510.851 1990.66 477.961C1963.6 451.749 1938.35 423.934 1913.69 396.004C1868.42 344.613 1823.03 289.72 1760.75 252.749C1738.23 239.51 1714.28 228.782 1689.36 220.759C1653.42 208.942 1615.9 202.014 1578.88 197.353C1499.65 187.609 1419.51 187.269 1340.17 196.339C1293.22 201.639 1244.15 211.659 1195.27 213.593C1145.7 215.537 1098.84 206.365 1049.8 212.225C988.349 219.58 934.265 254.076 885.287 287.429C860.857 304.093 835.666 321.887 808.901 337.192C779.043 354.302 747.106 368.277 711.762 374.232C652.605 384.246 592.228 384.819 532.925 375.928C514.349 373.13 495.933 369.39 477.749 364.721C429.541 352.389 383.161 336.097 334.519 322.026C191.971 280.659 34.4103 261.613 -113.522 255.099" stroke="#494949" stroke-opacity="0.3" stroke-width="1.7559" stroke-miterlimit="10"/>
<path opacity="0.44" d="M3130.71 418.365C3028.68 317.804 2858.25 322.22 2728.83 384.149C2697.16 399.375 2667.07 417.64 2638.99 438.68C2552.05 503.445 2481.89 587.232 2377.7 615.357C2291.1 638.733 2195.86 613.389 2120.71 566.034C2079.11 539.711 2042.67 507.557 2009.83 472.877C1983.52 445.261 1959.18 416.055 1935.51 386.658C1892.05 332.64 1848.28 274.758 1785.27 237.048C1762.44 223.566 1738.02 212.903 1712.57 205.297C1675.94 194.031 1637.63 188.155 1599.97 184.6C1519.4 177.204 1438.22 179.312 1358.12 190.881C1310.85 197.65 1261.15 209.382 1211.63 211.109C1161.34 212.858 1114.1 201.005 1064.29 206.221C1001.16 212.812 946.259 250.195 897.397 286.36C873.104 304.314 848.035 323.734 821.054 340.353C790.954 358.959 758.556 374.029 722.094 379.904C661.327 389.907 599.283 389.33 538.758 378.202C519.805 374.685 501.068 370.126 482.632 364.544C433.824 349.84 387.067 330.893 337.641 314.77C192.806 267.714 30.1504 249.824 -121.674 248.593" stroke="#494949" stroke-opacity="0.3" stroke-width="1.951" stroke-miterlimit="10"/>
<path opacity="0.5" d="M3148.65 416.367C3047.08 314.046 2875.42 314.752 2745.14 376.751C2713.23 391.988 2683.07 410.589 2655.18 432.229C2568.96 498.86 2501.83 587.02 2397.55 617.236C2310.24 642.545 2212.96 615.815 2138.09 565.881C2096.6 538.125 2060.83 504.27 2028.87 467.786C2003.32 438.766 1979.89 408.053 1957.21 377.304C1915.55 320.672 1873.44 259.839 1809.68 221.338C1786.55 207.604 1761.66 197.001 1735.68 189.812C1698.36 179.122 1659.26 174.287 1620.98 171.825C1539.08 166.794 1456.85 171.355 1376 185.415C1328.41 193.64 1278.08 207.085 1227.92 208.618C1176.9 210.16 1129.38 195.652 1078.71 200.21C1013.9 206.037 958.182 246.294 909.436 285.272C885.292 304.517 860.267 325.575 833.136 343.523C802.859 363.612 769.922 379.841 732.496 385.715C667.973 395.716 604.942 393.744 544.663 380.485C525.325 376.26 506.265 370.885 487.586 364.389C438.1 347.248 390.966 325.593 340.769 307.561C193.633 254.75 25.8959 238.016 -129.912 242.081" stroke="#494949" stroke-opacity="0.3" stroke-width="2.1461" stroke-miterlimit="10"/>
<path opacity="0.56" d="M3166.6 414.363C3065.5 310.281 2892.61 307.237 2761.47 369.32C2729.32 384.563 2699.09 403.493 2671.4 425.72C2585.86 494.23 2521.81 586.778 2417.42 619.11C2329.35 646.354 2230.06 618.237 2155.47 565.736C2114.09 536.535 2079.04 500.966 2048 462.69C2023.19 432.278 2000.69 400.109 1979 367.942C1939.13 308.682 1898.67 244.808 1834.1 205.631C1810.55 191.389 1785.18 181.302 1758.87 174.33C1720.86 164.191 1680.96 160.41 1642.08 159.054C1558.84 156.364 1475.56 163.376 1393.94 179.943C1346.05 189.611 1295.1 204.796 1244.29 206.134C1192.52 207.456 1144.68 190.267 1093.22 194.179C1026.71 199.243 970.184 242.388 921.554 284.193C897.545 304.819 872.59 327.426 845.297 346.677C814.804 368.262 781.34 385.626 742.913 391.382C676.581 401.315 612.008 398.141 550.568 382.649C530.833 377.729 511.445 371.542 492.527 364.127C442.324 344.651 394.879 320.288 343.833 300.307C194.499 241.791 21.6415 226.201 -138.163 235.564" stroke="#494949" stroke-opacity="0.3" stroke-width="2.3412" stroke-miterlimit="10"/>
<path opacity="0.63" d="M3184.56 412.356C3083.91 306.499 2909.74 299.717 2777.78 361.949C2745.39 377.216 2715.07 396.5 2687.58 419.336C2602.77 489.661 2541.73 586.636 2437.28 620.984C2348.48 650.175 2247.21 620.659 2172.87 565.589C2131.58 534.93 2097.16 497.671 2067.01 457.59C2042.95 425.773 2021.36 392.16 2000.66 358.576C1962.6 296.699 1923.76 229.821 1858.48 189.903C1834.65 175.324 1808.82 165.428 1782 158.827C1743.31 149.253 1702.6 146.526 1663.12 146.263C1578.56 145.924 1494.23 155.394 1411.85 174.48C1363.65 185.592 1312.05 202.516 1260.61 203.647C1208.11 204.774 1159.93 184.89 1107.67 188.17C1039.47 192.444 982.122 238.479 933.62 283.111C909.761 305.068 884.863 329.275 857.407 349.868C826.711 372.963 792.76 391.436 753.266 397.151C685.138 406.991 619.022 402.627 556.422 384.953C536.308 379.287 516.607 372.276 497.456 363.967C446.615 342.117 398.818 315.058 347.013 293.127C195.288 228.815 17.3745 214.382 -146.362 229.031" stroke="#494949" stroke-opacity="0.3" stroke-width="2.5363" stroke-miterlimit="10"/>
<path opacity="0.69" d="M3202.51 410.344C3102.31 302.724 2926.9 292.255 2794.11 354.533C2761.46 369.816 2731.07 389.443 2703.78 412.869C2619.67 485.048 2561.69 586.452 2457.15 622.841C2367.63 654.006 2264.33 623.065 2190.25 565.439C2149.07 533.334 2115.34 494.346 2086.08 452.485C2062.75 419.263 2042.1 384.193 2022.38 349.216C1986.11 284.683 1948.9 214.839 1882.89 174.181C1858.76 159.316 1832.48 149.546 1805.15 143.343C1765.77 134.32 1724.27 132.647 1684.19 133.491C1598.29 135.408 1512.89 147.33 1429.77 169.011C1381.2 181.476 1329.01 200.219 1276.94 201.142C1223.71 202.062 1175.2 179.495 1122.19 182.142C1052.3 185.627 994.135 234.578 945.761 282.026C922.039 305.313 897.211 331.109 869.592 353.006C838.68 377.572 804.306 397.193 763.706 402.932C693.77 412.704 626.111 407.138 562.351 387.166C541.847 380.789 521.828 372.978 502.447 363.791C450.862 339.45 402.676 309.669 350.126 285.788C196.112 215.833 13.1164 202.557 -154.604 222.506" stroke="#494949" stroke-opacity="0.3" stroke-width="2.73139" stroke-miterlimit="10"/>
<path opacity="0.75" d="M3220.47 408.383C3120.73 299 2944.06 284.714 2810.44 347.167C2777.54 362.474 2747.06 382.45 2719.98 406.465C2636.58 480.499 2581.66 586.333 2477.02 624.79C2386.77 657.93 2281.45 625.562 2207.64 565.367C2166.58 531.815 2133.5 491.137 2105.15 447.47C2082.57 412.841 2062.83 376.314 2044.1 339.892C2009.62 272.78 1974.09 199.905 1907.29 158.506C1882.88 143.368 1856.13 133.738 1828.29 127.893C1788.23 119.434 1745.93 118.816 1705.23 120.767C1618 125.032 1531.55 139.405 1447.66 163.592C1398.78 177.515 1345.99 197.986 1293.25 198.702C1239.29 199.414 1190.45 174.151 1136.59 176.178C1065.01 178.847 1005.99 230.676 957.788 281.005C934.241 305.61 909.444 333.008 881.649 356.234C850.547 382.286 815.595 403.042 774.033 408.663C702.3 418.368 633.086 411.599 568.165 389.392C547.263 382.26 526.922 373.611 507.311 363.513C455.139 336.848 406.575 304.343 353.241 278.551C196.951 202.887 8.87349 190.757 -162.831 216.008" stroke="#494949" stroke-opacity="0.3" stroke-width="2.92649" stroke-miterlimit="10"/>
<path opacity="0.81" d="M3238.38 406.317C3139.1 295.183 2961.19 277.131 2826.73 339.694C2793.57 355.039 2763.01 375.38 2736.14 399.992C2653.45 475.895 2601.6 586.173 2496.87 626.633C2405.9 661.76 2298.54 627.954 2224.99 565.24C2184.04 530.242 2151.64 487.86 2124.13 442.399C2102.31 406.364 2083.49 368.379 2065.74 330.552C2033.06 260.86 1999.17 184.939 1931.63 142.799C1906.99 127.388 1879.71 117.885 1851.36 112.425C1810.61 104.569 1767.51 104.955 1726.21 108C1637.65 114.623 1550.16 131.452 1465.5 158.145C1416.29 173.525 1362.85 195.724 1309.5 196.233C1254.85 196.738 1205.64 168.778 1150.97 170.172C1077.7 172.051 1017.75 226.694 969.76 279.943C946.207 305.827 921.609 334.892 893.664 359.423C862.295 386.972 826.895 408.864 784.304 414.509C710.842 423.927 640.084 415.981 574.003 391.54C552.706 383.665 532.048 374.194 512.211 363.206C459.4 334.153 410.472 299.028 356.353 271.233C197.774 189.871 4.60181 178.9 -171.06 209.455" stroke="#EE7701" stroke-opacity="0.2" stroke-width="3.12159" stroke-miterlimit="10"/>
<path opacity="0.88" d="M3256.36 404.312C3157.54 291.376 2978.38 269.596 2843.09 332.269C2809.68 347.622 2779.04 368.3 2752.38 393.478C2670.4 471.224 2621.68 586.152 2516.76 628.435C2425.15 665.719 2315.69 630.319 2242.4 564.969C2201.57 528.524 2169.84 484.425 2143.27 437.171C2122.19 399.729 2104.29 360.298 2087.53 321C2056.67 248.638 2024.41 169.775 1956.12 126.893C1931.12 111.183 1903.45 101.82 1874.59 96.732C1833.14 89.4023 1789.26 90.8815 1747.34 95.0604C1657.46 104.029 1568.92 123.309 1483.5 152.513C1433.97 169.353 1379.9 193.28 1325.91 193.582C1270.49 193.892 1220.99 163.118 1165.5 163.995C1090.55 164.93 1029.78 222.646 981.914 278.711C958.549 305.928 933.969 336.569 905.862 362.443C874.342 391.478 838.376 414.506 794.744 420.033C719.408 429.577 647.12 420.401 579.866 393.725C558.168 385.109 537.189 374.819 517.122 362.95C463.66 331.494 414.367 293.684 359.464 263.963C198.557 176.864 0.328714 167.039 -179.278 202.898" stroke="#EE7701" stroke-opacity="0.2" stroke-width="3.31669" stroke-miterlimit="10"/>
<path opacity="0.94" d="M3274.32 402.298C3176.01 287.599 2995.56 262.064 2859.4 324.846C2825.75 340.233 2795.02 361.262 2768.58 387.004C2687.31 466.683 2641.65 585.928 2536.63 630.305C2444.28 669.526 2332.81 632.738 2259.8 564.817C2219.07 526.912 2188.01 481.122 2162.35 432.06C2142.02 393.211 2125.02 352.322 2109.27 311.669C2080.19 236.687 2049.58 154.817 1980.54 111.194C1955.25 95.2114 1927.12 85.9748 1897.75 81.2978C1855.61 74.533 1810.93 77.0676 1768.42 82.3287C1677.21 93.6377 1587.62 115.37 1501.42 147.092C1451.57 165.389 1396.87 191.033 1342.25 191.14C1286.09 191.242 1236.26 157.809 1179.99 158.028C1103.34 158.185 1041.75 218.793 994.006 277.677C970.777 306.238 946.267 338.481 917.996 365.673C886.274 396.194 849.808 420.345 805.135 425.832C727.989 435.307 654.198 424.929 585.744 396.016C563.639 386.632 542.338 375.494 522.05 362.709C467.935 328.851 418.265 288.354 362.539 256.67C199.369 163.858 -3.98083 155.192 -187.571 196.357" stroke="#EE7701" stroke-opacity="0.2" stroke-width="3.49879" stroke-miterlimit="10"/>
<path d="M3292.28 400.295C3170.32 255.216 2918.41 245.414 2784.78 380.551C2704.21 462.021 2661.59 585.711 2556.5 632.183C2463.42 673.328 2349.93 635.151 2277.17 564.671C2204.41 494.192 2164.45 397.536 2130.97 302.291C2103.69 224.689 2074.74 139.811 2004.94 95.4469C1942.68 55.8884 1862.68 58.6793 1789.46 69.4837C1696.94 83.1565 1606.29 107.345 1519.32 141.57C1469.15 161.326 1413.87 188.712 1358.56 188.547C1301.67 188.441 1251.53 152.335 1194.43 151.959C1116.1 151.364 1053.7 214.865 1006.06 276.567C957.068 340.031 901.899 421.268 815.498 431.556C711.336 443.944 613.528 419.866 526.975 362.534C472.195 326.272 422.174 283.089 365.702 249.452C200.243 150.913 -8.14972 143.394 -195.763 189.865" stroke="#494949" stroke-opacity="0.3" stroke-width="3.69389" stroke-miterlimit="10"/>
</g>
</g>
</svg>
