<svg width="110" height="27" viewBox="0 0 110 27" fill="none" xmlns="http://www.w3.org/2000/svg">
<g clip-path="url(#clip0_175_9765)">
<path fill-rule="evenodd" clip-rule="evenodd" d="M21.6411 14.8428V23.6994L26.3594 20.9846V12.1279L21.6411 14.8428Z" fill="#1F1F1F"/>
<path opacity="0.5" fill-rule="evenodd" clip-rule="evenodd" d="M12.2553 5.50939L5.50543 9.40387L0.787109 6.68897L12.2553 0.0795898L20.3251 4.74174L15.6255 7.45663L12.2553 5.50939Z" fill="#494949"/>
<path opacity="0.5" fill-rule="evenodd" clip-rule="evenodd" d="M13.9844 19.2572L21.6413 14.843L26.3503 12.1187L21.6413 9.40381L13.9844 13.8368V19.2572Z" fill="#494949"/>
<path fill-rule="evenodd" clip-rule="evenodd" d="M0.787109 6.68896V19.9265L12.2553 26.5359V21.1061L5.50543 17.2115V9.40386L0.787109 6.68896Z" fill="#1F1F1F"/>
<mask id="mask0_175_9765" style="mask-type:luminance" maskUnits="userSpaceOnUse" x="34" y="-1" width="76" height="28">
<path d="M109.437 -0.000976562H34.8301V26.4553H109.437V-0.000976562Z" fill="white"/>
</mask>
<g mask="url(#mask0_175_9765)">
<path d="M44.5078 19.0295C43.6712 19.3576 42.6542 19.456 41.5716 19.456C41.4076 19.456 41.2436 19.456 41.0796 19.4396C37.5201 19.2756 34.9285 17.1432 34.9285 13.3705C34.9285 9.56505 37.7006 7.23584 41.4076 7.23584C42.5394 7.23584 43.6384 7.44908 44.4586 7.84275L44.3109 10.6476C43.6384 10.336 42.7034 10.1063 41.6865 10.1063C39.1768 10.1063 37.6513 11.4678 37.6513 13.5346C37.6513 15.5029 38.8324 16.7495 40.8499 16.9792C41.2108 17.012 41.6044 17.012 41.9653 16.9956V13.8134H44.5078V19.0295ZM46.1983 19.2592V10.3524H48.6915V11.5334H48.7571C49.2164 10.582 50.299 10.1392 51.7425 10.1392L51.5784 13.0425C49.4789 12.9605 48.7407 13.797 48.7407 15.8638V19.2592H46.1983ZM61.9443 22.3757V10.3524H64.4375V11.4186H64.5031C65.0116 10.6312 66.0122 10.1392 67.226 10.1392C69.6372 10.1392 71.4416 11.8615 71.4416 14.814C71.4416 17.7665 69.4896 19.4724 67.2096 19.4724C66.0614 19.4724 65.0444 18.9639 64.5359 18.029H64.4867V22.3757H61.9443ZM66.6683 17.1268C67.8493 17.1268 68.7679 16.2082 68.7679 14.9288C68.7679 13.6494 67.8493 12.7472 66.6683 12.7472C65.4709 12.7472 64.5359 13.6002 64.5359 14.9288C64.5359 16.241 65.4709 17.1268 66.6683 17.1268ZM90.5832 19.0787C89.7959 19.3576 88.9101 19.4724 87.9424 19.4724C84.7274 19.4724 82.677 17.8321 82.677 14.7648C82.677 12.1075 84.4157 10.1392 87.0894 10.1392C89.8123 10.1392 91.1737 12.2715 91.1737 14.6828C91.1737 15.0436 91.1573 15.4373 91.0917 15.7325H85.5147C85.8428 16.8643 86.8598 17.3728 88.4016 17.3728C89.1562 17.3728 89.7795 17.2744 90.37 17.0612L90.5832 19.0787ZM87.1222 12.5012C86.3021 12.5012 85.5639 12.9769 85.3835 14.1743H88.7789C88.7297 13.2393 88.0736 12.5012 87.1222 12.5012ZM92.5717 19.2592V10.3524H95.0649V11.5334H95.1305C95.5898 10.582 96.6724 10.1392 98.1159 10.1392L97.9518 13.0425C95.8523 12.9605 95.1141 13.797 95.1141 15.8638V19.2592H92.5717Z" fill="#854F1B"/>
<path d="M57.6181 13.6002C57.6181 13.0753 57.0932 12.7472 55.9942 12.7472C54.9281 12.7472 53.9275 13.0589 53.14 13.4197L52.9596 10.8773C53.7306 10.4672 54.8952 10.1392 56.2567 10.1392C59.0452 10.1392 60.2426 11.435 60.2426 13.8298V19.2592H57.6509V18.1766C56.9948 18.9639 56.2403 19.4724 54.9281 19.4724C53.4518 19.4724 52.3855 18.7015 52.3855 17.2088C52.3855 15.3061 53.9111 14.7484 55.8138 14.4367C56.5355 14.3055 56.9292 14.2071 57.2737 14.0759C57.5525 13.961 57.6181 13.8298 57.6181 13.6002ZM57.6509 15.3881C57.3885 15.5193 56.962 15.6833 56.4207 15.7982C55.5678 15.995 55.0429 16.2082 55.0429 16.9464C55.0429 17.5369 55.535 17.8157 56.1583 17.8157C56.88 17.8157 57.4049 17.3728 57.6509 16.8316V15.3881ZM78.8239 14.732C78.8239 13.5182 78.3154 12.698 77.118 12.698C75.937 12.698 75.3957 13.5018 75.3957 14.7484V19.2592H72.8533V6.79297H75.3465V11.3858H75.4121C75.937 10.6148 76.7408 10.1392 78.0038 10.1392C80.2182 10.1392 81.35 11.6154 81.35 13.7806V19.2592H78.8239V14.732ZM98.8228 19.2592V17.34L102.809 12.78H99.0032V10.3524H105.909V12.6324L101.923 17.0448H105.991V19.2592H98.8228Z" fill="#EE7701"/>
</g>
</g>
<defs>
<clipPath id="clip0_175_9765">
<rect width="109" height="26.9854" fill="white" transform="translate(0.436035)"/>
</clipPath>
</defs>
</svg>
