<svg width="57" height="52" viewBox="0 0 57 52" fill="none" xmlns="http://www.w3.org/2000/svg">
<g clip-path="url(#clip0_175_9783)">
<path d="M28.2987 23.3867C34.7568 23.3867 39.9922 18.1514 39.9922 11.6932C39.9922 8.78739 38.9323 6.12917 37.1781 4.08398L20.6895 20.5726C22.7346 22.3269 25.3929 23.3867 28.2987 23.3867Z" fill="#EE7701"/>
<path d="M35.9062 2.8124C33.8613 1.05918 31.2038 0 28.299 0C21.8409 0 16.6055 5.23539 16.6055 11.6935C16.6055 14.5984 17.6646 17.2558 19.4179 19.3007L35.9062 2.8124Z" fill="#EAA765"/>
<mask id="mask0_175_9783" style="mask-type:luminance" maskUnits="userSpaceOnUse" x="0" y="28" width="57" height="24">
<path d="M56.5973 28.3867H0.000488281V51.7738H56.5973V28.3867Z" fill="white"/>
</mask>
<g mask="url(#mask0_175_9783)">
<path d="M2.82133 45.5761H0.0672607L4.25823 35.0987H6.69797L10.9638 45.5761H8.04507L7.44636 44.0345H3.42003L2.82133 45.5761ZM4.22829 41.8641H6.65307L5.44068 38.3467L4.22829 41.8641ZM14.3423 38.0174L14.5369 39.5741C15.1805 38.8107 16.1085 38.2569 16.9319 38.0174L17.1564 40.5619C16.2132 40.5769 15.3601 40.8014 14.6566 41.2954V45.5761H12.2169V40.9511L11.9025 38.2419L14.3423 38.0174ZM18.9151 42.7622V40.1877H17.8973V38.0923H18.975L19.1396 36.2662L21.3549 36.0566V38.0923H23.5401L23.3156 40.1877H21.3549V42.5377C21.3549 43.1813 21.6243 43.4806 22.0883 43.4806C22.3577 43.4806 22.7469 43.4058 23.151 43.1663L23.9892 45.0972C23.3456 45.5163 22.5523 45.7258 21.6991 45.7258C20.0377 45.7258 18.9151 44.8277 18.9151 42.7622ZM26.3793 37.3289C25.601 37.3289 24.9724 36.6853 24.9724 35.907C24.9724 35.1286 25.601 34.5 26.3793 34.5C27.1726 34.5 27.8013 35.1286 27.8013 35.907C27.8013 36.6853 27.1726 37.3289 26.3793 37.3289ZM27.6067 38.0174V45.5761H25.1669V38.2419L27.6067 38.0174ZM32.2158 40.5919L33.2187 40.8314C34.6406 41.1756 35.374 41.909 35.374 43.1963C35.374 44.708 34.2664 45.7258 32.2458 45.7258C31.0783 45.7258 29.9407 45.4414 28.9978 44.8876L29.791 43.1214C30.6292 43.5405 31.4375 43.78 32.1709 43.78C32.6649 43.78 32.9043 43.6603 32.9043 43.3908C32.9043 43.1514 32.7996 43.0765 32.3805 42.9717L31.3776 42.7323C29.9407 42.388 29.2223 41.6695 29.2223 40.4721C29.2223 38.9604 30.3149 37.9426 32.2757 37.9426C33.4132 37.9426 34.4161 38.2569 35.2992 38.7808L34.5059 40.547C33.7276 40.0979 33.054 39.8884 32.3356 39.8884C31.9015 39.8884 31.6919 39.9932 31.6919 40.2027C31.6919 40.4123 31.8117 40.5021 32.2158 40.5919ZM36.9816 42.7622V40.1877H35.9638V38.0923H37.0415L37.2062 36.2662L39.4214 36.0566V38.0923H41.6067L41.3822 40.1877H39.4214V42.5377C39.4214 43.1813 39.6908 43.4806 40.1548 43.4806C40.4242 43.4806 40.8134 43.4058 41.2175 43.1663L42.0557 45.0972C41.4121 45.5163 40.6188 45.7258 39.7656 45.7258C38.1042 45.7258 36.9816 44.8277 36.9816 42.7622ZM45.3739 38.0174L45.5684 39.5741C46.2121 38.8107 47.1401 38.2569 47.9633 38.0174L48.1878 40.5619C47.2448 40.5769 46.3917 40.8014 45.6882 41.2954V45.5761H43.2485V40.9511L42.9341 38.2419L45.3739 38.0174ZM49.0704 46.7735C50.2678 46.7735 50.8815 46.4892 51.1509 45.8306L51.2108 45.6659L48.3819 38.0923H51.0013L52.3933 42.5676L53.8451 38.0923H56.3747L54.4139 43.3459L53.4859 45.8306C52.7226 47.8961 51.6 48.8391 49.6691 49.0187L49.0704 46.7735Z" fill="#29303F"/>
</g>
</g>
<defs>
<clipPath id="clip0_175_9783">
<rect width="56.5968" height="51.7738" fill="white" transform="translate(0.000488281)"/>
</clipPath>
</defs>
</svg>
