<svg width="99" height="25" viewBox="0 0 99 25" fill="none" xmlns="http://www.w3.org/2000/svg">
<g clip-path="url(#clip0_175_9734)">
<path opacity="0.4" d="M3.34054 11.7832V24.1465H0.000488281V14.453L3.34054 11.7832Z" fill="#B4A597"/>
<path d="M3.34082 11.7832V24.1465H6.68088V13.8517L3.34082 11.7832Z" fill="#EE7701"/>
<path opacity="0.5" d="M9.9224 6.7334V24.1464H5.46899V10.419L9.9224 6.7334Z" fill="#B4A597"/>
<path d="M9.92261 6.7334V24.1464H14.376V9.49144L9.92261 6.7334Z" fill="#EE7701"/>
<path opacity="0.6" d="M18.1485 0V24.1463H12.1494V5.51435L18.1485 0Z" fill="#B4A597"/>
<path d="M18.1492 0V24.1463H24.1482V5.51435L18.1492 0Z" fill="#EE7701"/>
<mask id="mask0_175_9734" style="mask-type:luminance" maskUnits="userSpaceOnUse" x="31" y="0" width="69" height="25">
<path d="M99.0031 0H31.3933V24.1463H99.0031V0Z" fill="white"/>
</mask>
<g mask="url(#mask0_175_9734)">
<path d="M31.5945 17.6994V6.99002H33.2017V17.6994H31.5945ZM37.2548 17.6994H35.7094V9.40079H37.1002V10.2662L37.9656 9.40079H41.0409L41.7054 10.0808L42.3699 9.40079H45.8934L46.9751 10.4671V17.6994H45.4298V10.8534H42.1536V17.6994H40.6082V10.8534H37.9965L37.2548 11.5179V17.6994ZM50.8069 20.8365H49.2616V9.40079H50.6524V10.2662L51.5178 9.40079H54.6858L55.7676 10.4671V16.6176L54.6858 17.6994H50.8069V20.8365ZM54.2222 10.8534H51.5487L50.8069 11.5179V16.2777H54.2222V10.8534ZM59.5899 17.6994H58.0446V9.40079H59.4354V10.4516L60.5017 9.40079H62.418V10.8843H60.4708L59.5899 11.7188V17.6994ZM65.2658 7.90179H63.6586V6.44914H65.2658V7.90179ZM65.2349 17.6994H63.6895V9.40079H65.2349V17.6994ZM69.0978 17.6994H67.5524V9.40079H68.9433V10.2662L69.8087 9.40079H73.1158L74.1975 10.4671V17.6994H72.6367V10.8534H69.8396L69.0978 11.5179V17.6994ZM80.6127 17.6994H77.8465L76.7647 16.6176V10.6834H75.6212V9.40079H76.7647V7.71634H78.3101V9.40079H80.4427V10.6834H78.3101V16.2468H80.6127V17.6994ZM83.7532 7.90179H82.146V6.44914H83.7532V7.90179ZM83.7223 17.6994H82.1769V9.40079H83.7223V17.6994ZM88.2801 17.6994H86.7348V10.6834H85.3903V9.40079H86.7348V7.37636L87.8165 6.31006H90.3818V7.59271H88.2801V9.40079H90.2273V10.6834H88.2801V17.6994ZM91.6713 18.2248H93.1703V19.492H96.6473V17.2512H92.6294L91.5631 16.1849V9.40079H93.1084V15.8913H96.6473V9.40079H98.1927V19.7702L97.0955 20.8365H92.7685L91.6713 19.7702V18.2248Z" fill="#1F1F1F"/>
</g>
</g>
<defs>
<clipPath id="clip0_175_9734">
<rect width="99" height="24.1463" fill="white" transform="translate(0.000488281)"/>
</clipPath>
</defs>
</svg>
