<svg width="276" height="446" viewBox="0 0 276 446" fill="none" xmlns="http://www.w3.org/2000/svg">
<g clip-path="url(#clip0_78_1632)">
<mask id="mask0_78_1632" style="mask-type:luminance" maskUnits="userSpaceOnUse" x="0" y="-1" width="276" height="448">
<path d="M275.589 410.102V406.973C199.607 367.416 124.216 299.481 125.698 185.832C126.975 87.969 109.688 31.7012 79.4214 0.00313072H75.4943C106.431 30.7916 124.181 86.6988 122.888 185.795C121.379 301.487 198.458 370.274 275.589 410.099M275.589 414.24V411.128C197.397 372.11 117.45 303.574 118.98 186.572C120.268 87.945 102.702 31.5591 71.9996 -0.00644341H68.0262C99.4258 30.632 117.478 86.6429 116.17 186.537C114.617 305.593 196.283 374.973 275.589 414.24ZM275.589 418.243V415.156C195.332 376.751 110.692 307.669 112.26 187.314C113.559 87.8988 95.7013 31.4091 64.5474 -6.14682e-05H60.5389C92.4108 30.4597 110.765 86.5695 109.452 187.281C107.855 309.702 194.25 379.602 275.589 418.24V418.243ZM275.589 422.11V419.049C193.408 381.313 103.929 311.776 105.544 188.058C106.851 87.8605 88.7007 31.2703 57.0841 -0.00644341H53.0388C85.4039 30.2889 104.058 86.4929 102.734 188.024C101.093 313.822 192.366 384.158 275.589 422.11ZM275.589 425.862V422.812C191.652 385.813 97.1678 315.897 98.8242 188.8C100.144 87.8046 81.6938 31.1107 49.608 -0.00644341H45.5101C78.3634 30.107 97.3513 86.394 96.0157 188.771C94.3289 317.96 190.641 388.663 275.589 425.862ZM275.589 429.482V426.465C190.064 390.268 90.405 320.046 92.1061 189.543C93.4353 87.7376 74.6773 30.9512 42.1143 -0.00644341H37.9813C71.3326 29.9155 90.6412 86.2903 89.2975 189.504C87.5677 322.123 189.086 393.102 275.589 429.482ZM275.589 432.993V429.983C188.66 394.657 83.6486 324.223 85.3879 190.285C86.7284 87.6626 67.6575 30.774 34.6111 -0.00644341H30.4191C64.2889 29.7208 83.9358 86.1642 82.5794 190.246C80.8049 326.314 187.722 397.495 275.589 432.998V432.993ZM275.589 436.395V433.403C187.457 399.005 76.8794 328.431 78.673 191.024C80.0198 87.5716 60.6251 30.5985 27.0808 -0.00644341H22.8504C57.2421 29.515 77.2257 86.0413 75.8565 190.988C74.0389 330.546 186.557 401.85 275.589 436.4V436.395ZM275.589 439.694V436.716C186.471 403.315 70.1134 332.69 71.9517 191.768C73.3129 87.4727 53.6006 30.415 19.5472 -0.00325122H15.2514C50.1808 29.3139 70.5235 85.8945 69.1416 191.734C67.2762 334.824 185.617 406.162 275.589 439.698V439.694ZM275.589 442.885V439.92C185.724 407.587 63.3538 336.994 65.2336 192.502C66.606 87.3419 46.5441 30.2139 11.9801 -0.0112305H7.64768C43.1165 29.1001 63.8166 85.7461 62.4251 192.48C60.5102 339.158 184.907 410.44 275.589 442.896V442.885ZM86.8544 -0.00644341C116.681 31.832 133.683 87.9881 132.416 185.086C130.98 295.377 201.945 362.622 275.589 402.656V405.817C200.764 365.501 128.141 297.388 129.606 185.051C130.883 86.753 113.432 30.94 82.9544 -6.14682e-05L86.8544 -0.00644341ZM275.589 446.006C184.471 414.701 53.7458 343.559 55.7053 193.23C57.1112 85.5658 36.0409 28.8767 0.00244141 -0.00644341H4.41308C39.4989 30.024 59.899 87.2333 58.5091 193.25C56.5766 341.379 185.234 411.838 275.582 443.035L275.589 446.006Z" fill="white"/>
</mask>
<g mask="url(#mask0_78_1632)">
<path d="M275.59 0H0.0032959V446H275.59V0Z" fill="#EE7701"/>
</g>
</g>
<defs>
<clipPath id="clip0_78_1632">
<rect width="275.586" height="446" fill="white"/>
</clipPath>
</defs>
</svg>
