<svg width="510" height="101" viewBox="0 0 510 101" fill="none" xmlns="http://www.w3.org/2000/svg">
<g clip-path="url(#clip0_324_234)">
<path d="M70.9623 23.9416C74.1547 27.646 74.2564 35.2449 74.2279 38.0175C74.2003 40.6391 73.429 42.7345 71.6158 43.0973C69.8025 43.4602 55.4349 39.1792 52.3869 37.1474C49.3388 35.1157 47.5977 27.0618 47.3802 22.9252C47.1626 18.7886 49.2153 16.3228 52.3869 16.3228C55.4786 16.3228 67.9474 20.4442 70.9623 23.9416Z" fill="#EE7701"/>
<path d="M2.04989 32.9171C1.81813 33.8973 4.95361 37.9617 4.95361 38.658C4.95361 39.3542 4.37324 46.7318 4.37324 47.7168C-0.330452 44.871 -1.14353 38.4395 2.04989 32.9171Z" fill="#EE7701"/>
<path d="M19.8004 3.12054C19.0453 5.41065 17.913 13.474 18.2189 14.1455C21.5833 9.86357 33.2428 1.40225 40.4142 0.497986C40.4142 5.20073 35.8349 10.2891 35.285 10.7783C38.5031 11.1791 41.668 9.77239 43.298 8.45399C43.998 9.75054 44.1737 11.7946 43.6057 13.5832C47.0632 12.5384 51.0146 11.4726 52.3843 11.4726C55.8038 11.4726 62.1735 13.815 63.415 14.2852C68.9479 16.3748 72.7236 18.5595 74.628 20.7708C76.3786 22.7997 77.6286 25.6521 78.3448 29.2473C78.8597 31.8319 79.0696 34.7983 79.0696 38.0629C79.0696 46.9916 69.2566 53.4573 55.6642 55.0378C55.6747 55.871 55.727 56.7032 55.8209 57.5312C56.1647 60.0379 57.997 65.2621 57.3103 67.5531C56.6235 69.8442 52.8165 72.33 42.654 72.0431C42.3101 74.4482 46.0886 81.6015 49.4074 85.2157C52.7262 88.8299 42.5191 100.043 39.8082 100.489C37.0973 100.936 15.4254 87.5856 11.2792 82.4203C10.4386 81.3755 13.4421 73.7044 12.5853 68.2674C11.4455 61.0324 6.78072 55.9193 6.78072 50.489C6.78072 40.3255 18.7812 32.9299 24.2486 32.9299C24.7634 32.9299 24.4984 41.2981 32.3224 44.4621C40.1463 47.6261 52.6844 44.0822 54.6184 44.0822C55.4732 44.0822 55.7069 46.8311 54.6184 48.3195C55.0268 48.8714 55.2643 49.7224 55.4077 50.7103C67.8385 50.2952 76.694 45.4262 76.694 38.0449C76.694 32.9802 76.1193 26.1432 72.829 22.3286C70.7783 19.9539 66.1202 17.8538 62.5706 16.5126C59.0722 15.1894 54.5652 13.853 52.3805 13.853C50.4228 13.853 25.2972 20.2702 13.4962 28.1208C11.6449 29.3556 7.40002 32.965 6.63253 33.1645C5.86504 33.364 3.97958 29.8096 3.73832 28.1863C3.49706 26.563 11.2982 8.13578 19.8004 3.12054Z" fill="#EE7701"/>
</g>
<path d="M459.659 87.7341V12.2155H474.048V44.1455C475.729 40.7845 478.039 38.2987 480.98 36.6882C483.921 35.0076 487.247 34.1674 490.958 34.1674C494.6 34.1674 497.821 34.8676 500.621 36.268C503.492 37.6685 505.733 39.8041 507.344 42.675C509.024 45.4759 509.864 49.012 509.864 53.2834V87.7341H495.475V57.4847C495.475 52.9333 494.6 49.8173 492.849 48.1368C491.099 46.3862 488.858 45.5109 486.127 45.5109C484.096 45.5109 482.136 46.0011 480.245 46.9814C478.425 47.8917 476.919 49.4322 475.729 51.6028C474.608 53.7035 474.048 56.5044 474.048 60.0055V87.7341H459.659Z" fill="white"/>
<path d="M424.215 34.1674C428.906 34.1674 432.863 34.8676 436.084 36.268C439.375 37.5984 442.001 39.454 443.961 41.8348C445.992 44.1455 447.427 46.7363 448.268 49.6072L434.823 54.4387C434.123 51.2877 432.933 48.907 431.252 47.2965C429.572 45.686 427.296 44.8807 424.425 44.8807C421.764 44.8807 419.489 45.5109 417.598 46.7713C415.707 47.9617 414.272 49.8173 413.292 52.338C412.311 54.7888 411.821 57.8698 411.821 61.5809C411.821 65.2921 412.311 68.3731 413.292 70.8238C414.342 73.2746 415.812 75.0952 417.703 76.2855C419.664 77.4759 421.939 78.0711 424.53 78.0711C426.631 78.0711 428.416 77.721 429.887 77.0208C431.357 76.2505 432.548 75.1652 433.458 73.7647C434.438 72.3643 435.103 70.6838 435.454 68.7232L448.478 72.9245C447.707 76.0755 446.272 78.8413 444.171 81.2221C442.071 83.6028 439.375 85.4584 436.084 86.7888C432.793 88.1192 428.977 88.7844 424.635 88.7844C419.243 88.7844 414.482 87.6991 410.351 85.5284C406.219 83.3577 403.033 80.2418 400.793 76.1805C398.552 72.1192 397.432 67.2177 397.432 61.4759C397.432 55.7341 398.552 50.8326 400.793 46.7713C403.033 42.71 406.184 39.5941 410.246 37.4234C414.307 35.2527 418.963 34.1674 424.215 34.1674Z" fill="white"/>
<path d="M363.915 88.7844C358.384 88.7844 353.552 87.6991 349.421 85.5284C345.36 83.3577 342.209 80.2418 339.968 76.1805C337.727 72.1192 336.607 67.2177 336.607 61.4759C336.607 55.7341 337.727 50.8326 339.968 46.7713C342.209 42.71 345.325 39.5941 349.316 37.4234C353.377 35.2527 357.999 34.1674 363.18 34.1674C368.502 34.1674 373.018 35.2527 376.729 37.4234C380.441 39.524 383.277 42.4299 385.237 46.1411C387.198 49.7822 388.178 53.9485 388.178 58.64C388.178 60.0405 388.143 61.3709 388.073 62.6313C388.003 63.8917 387.898 65.012 387.758 65.9923H345.85V56.0142H381.456L374.524 58.535C374.524 54.1236 373.508 50.7275 371.478 48.3468C369.517 45.9661 366.716 44.7757 363.075 44.7757C360.414 44.7757 358.104 45.4059 356.143 46.6663C354.252 47.9267 352.817 49.8173 351.837 52.338C350.856 54.7888 350.366 57.9048 350.366 61.686C350.366 65.3971 350.891 68.4781 351.942 70.9289C353.062 73.3096 354.603 75.0952 356.563 76.2855C358.594 77.4759 361.01 78.0711 363.81 78.0711C366.891 78.0711 369.377 77.4759 371.268 76.2855C373.158 75.0952 374.629 73.4496 375.679 71.349L387.128 75.7604C386.007 78.4912 384.292 80.837 381.981 82.7976C379.74 84.7582 377.045 86.2637 373.894 87.314C370.813 88.2943 367.487 88.7844 363.915 88.7844Z" fill="white"/>
<path d="M339.534 18.4125V30.0711H316.322V87.7342H301.827V30.0711H278.51V18.4125H339.534Z" fill="white"/>
<path d="M213.931 18.4125C221.773 18.4125 227.935 20.3031 232.417 24.0843C236.898 27.8654 239.139 32.942 239.139 39.314C239.139 46.1061 236.898 51.3228 232.417 54.9639C227.935 58.535 221.808 60.3206 214.036 60.3206L212.566 61.1609H197.651V87.7342H183.366V18.4125H213.931ZM212.25 50.1324C216.312 50.1324 219.323 49.3271 221.283 47.7166C223.314 46.0361 224.329 43.4803 224.329 40.0492C224.329 36.6182 223.314 34.0974 221.283 32.4869C219.323 30.8064 216.312 29.9661 212.25 29.9661H197.651V50.1324H212.25ZM220.758 53.1783L243.235 87.7342H226.955L208.364 57.3797L220.758 53.1783Z" fill="white"/>
<path d="M172.871 18.4125L147.663 87.7342H130.753L105.44 18.4125H120.775L135.375 62.5263L139.366 76.1805L143.252 62.6313L157.957 18.4125H172.871Z" fill="white"/>
<defs>
<clipPath id="clip0_324_234">
<rect width="78.9341" height="100" fill="white" transform="matrix(-1 0 0 1 79.0698 0.5)"/>
</clipPath>
</defs>
</svg>
