<svg width="20" height="21" viewBox="0 0 20 21" fill="none" xmlns="http://www.w3.org/2000/svg">
<path fill-rule="evenodd" clip-rule="evenodd" d="M2.06502 7.09623C1.875 7.83232 1.875 8.78872 1.875 10.5001C1.875 12.4397 1.875 13.4096 2.15167 14.1881C2.63451 15.5466 3.70345 16.6156 5.06203 17.0984C5.8405 17.3751 6.81033 17.3751 8.75 17.3751H11.25C13.1897 17.3751 14.1595 17.3751 14.938 17.0984C16.2966 16.6156 17.3655 15.5466 17.8483 14.1881C18.125 13.4096 18.125 12.4397 18.125 10.5001C18.125 8.78874 18.125 7.83234 17.935 7.09624L14.8201 9.39156L14.795 9.41006C13.8668 10.094 13.1354 10.633 12.5017 11.0149C11.8523 11.4062 11.2621 11.6606 10.6072 11.7441C10.2043 11.7956 9.79642 11.7956 9.39342 11.7442C8.73867 11.6606 8.14834 11.4063 7.49902 11.015C6.86527 10.6331 6.1338 10.0941 5.20559 9.41023L5.18057 9.39181L2.06502 7.09623ZM2.57654 5.92046L5.92204 8.38545C6.88076 9.09181 7.56596 9.59589 8.1442 9.94439C8.71258 10.2869 9.1335 10.4509 9.55175 10.5042C9.84958 10.5423 10.1511 10.5423 10.4489 10.5042C10.8672 10.4508 11.2881 10.2868 11.8564 9.94431C12.4347 9.59581 13.1198 9.09173 14.0785 8.38527L17.4235 5.92047C16.8561 4.99086 15.9827 4.27301 14.938 3.90173C14.1595 3.62506 13.1897 3.62506 11.25 3.62506H8.75C6.81033 3.62506 5.8405 3.62506 5.06203 3.90173C4.01734 4.27301 3.14391 4.99085 2.57654 5.92046Z" fill="#B4ADA6"/>
</svg>
