<svg width="29" height="20" viewBox="0 0 29 20" fill="none" xmlns="http://www.w3.org/2000/svg">
<path d="M15.2869 13.6343C15.2869 12.5325 15.394 11.3542 15.6083 10.0995C15.8225 8.84468 16.1592 7.5899 16.6182 6.36572C17.0773 5.12624 17.6894 3.94797 18.4239 2.83091C19.1737 1.71385 20.0612 0.76511 21.1171 0L25.1569 2.83091C24.4836 3.62663 23.9786 4.39174 23.6266 5.11094C23.2747 5.83014 22.9993 6.54935 22.8003 7.28385C23.5501 7.40627 24.2387 7.65111 24.8967 8.03367C25.5394 8.40092 26.1056 8.87529 26.5647 9.44147C27.0237 10.0076 27.391 10.635 27.6664 11.3695C27.9419 12.0888 28.0796 12.8539 28.0796 13.6496C28.0796 14.4912 27.9113 15.3022 27.5746 16.0826C27.238 16.8477 26.7789 17.5363 26.1974 18.1178C25.6159 18.6993 24.9426 19.1584 24.1775 19.495C23.4124 19.8317 22.6014 20 21.7292 20C20.8569 20 20 19.8317 19.2043 19.495C18.4239 19.1584 17.7353 18.6993 17.1691 18.1178C16.6029 17.5363 16.1439 16.8477 15.8072 16.0826C15.4553 15.2869 15.2869 14.4759 15.2869 13.6343ZM7.62939e-06 13.6343C7.62939e-06 12.5325 0.107124 11.3542 0.321356 10.0995C0.535587 8.84468 0.872236 7.5899 1.3313 6.36572C1.79037 5.12624 2.38716 3.94797 3.12167 2.83091C3.85617 1.71385 4.7437 0.76511 5.79955 0L9.86994 2.83091C9.16604 3.62663 8.64577 4.39174 8.30912 5.11094C7.95717 5.83014 7.68173 6.54935 7.4828 7.28385C8.23261 7.40627 8.92121 7.65111 9.5792 8.03367C10.2219 8.40092 10.7881 8.87529 11.2624 9.44147C11.7368 10.0076 12.1041 10.635 12.3795 11.3695C12.655 12.0888 12.7927 12.8539 12.7927 13.6496C12.7927 14.4912 12.6243 15.3022 12.2877 16.0826C11.951 16.8477 11.492 17.5363 10.9105 18.1178C10.329 18.6993 9.65571 19.1584 8.8906 19.495C8.12549 19.8317 7.31447 20 6.44225 20C5.57002 20 4.69779 19.8317 3.91738 19.495C3.13696 19.1584 2.44837 18.6993 1.86688 18.1178C1.2854 17.5363 0.826332 16.8477 0.504984 16.0826C0.168335 15.2869 7.62939e-06 14.4759 7.62939e-06 13.6343Z" fill="#EE7701"/>
</svg>
