<svg width="20" height="21" viewBox="0 0 20 21" fill="none" xmlns="http://www.w3.org/2000/svg">
<path d="M7.92089 3.45055C6.53781 2.068 4.29548 2.068 2.91239 3.45055C2.13558 4.22706 1.79529 5.2753 1.89066 6.28774C1.91616 9.00657 3.33653 12.1214 5.85867 14.6426C8.38083 17.1637 11.4968 18.5834 14.2164 18.6089C15.2291 18.7042 16.2776 18.3642 17.0543 17.5877C18.4376 16.205 18.4376 13.9632 17.0543 12.5804C15.6712 11.1979 13.4289 11.1979 12.0458 12.5804C11.7191 12.9071 11.4692 13.2822 11.2967 13.6828C10.4348 13.1477 9.59183 12.4837 8.80475 11.6969C8.01791 10.9103 7.3537 10.0678 6.81839 9.20641C7.21898 9.03399 7.59421 8.78434 7.92089 8.45778C9.30408 7.0751 9.30408 4.83323 7.92089 3.45055Z" fill="#B4ADA6"/>
</svg>
